<mxfile host="app.diagrams.net" modified="2022-07-31T12:19:27.216Z" agent="5.0 (Macintosh; Intel Mac OS X 10_15_7) AppleWebKit/605.1.15 (KHTML, like Gecko) Version/15.5 Safari/605.1.15" etag="xTvrbawN0hPoAQ_cgLsc" version="20.2.2" type="github">
  <diagram id="K4SllDyWBe866cMlf7m9" name="Page-1">
    <mxGraphModel dx="757" dy="498" grid="1" gridSize="10" guides="1" tooltips="1" connect="1" arrows="1" fold="1" page="1" pageScale="1" pageWidth="1169" pageHeight="1654" math="0" shadow="0">
      <root>
        <mxCell id="0" />
        <mxCell id="1" parent="0" />
        <mxCell id="gdKUg1x8Pc7YjSa4p0e4-49" style="edgeStyle=orthogonalEdgeStyle;rounded=0;orthogonalLoop=1;jettySize=auto;html=1;entryX=0.5;entryY=0;entryDx=0;entryDy=0;fontSize=14;strokeColor=#66B2FF;" parent="1" source="gdKUg1x8Pc7YjSa4p0e4-1" target="gdKUg1x8Pc7YjSa4p0e4-2" edge="1">
          <mxGeometry relative="1" as="geometry" />
        </mxCell>
        <mxCell id="gdKUg1x8Pc7YjSa4p0e4-1" value="Start" style="ellipse;whiteSpace=wrap;html=1;fontSize=14;" parent="1" vertex="1">
          <mxGeometry x="571.5" y="47" width="75" height="50" as="geometry" />
        </mxCell>
        <mxCell id="gdKUg1x8Pc7YjSa4p0e4-4" value="" style="edgeStyle=orthogonalEdgeStyle;rounded=0;orthogonalLoop=1;jettySize=auto;html=1;fontSize=14;strokeColor=#66B2FF;" parent="1" source="gdKUg1x8Pc7YjSa4p0e4-2" target="gdKUg1x8Pc7YjSa4p0e4-3" edge="1">
          <mxGeometry relative="1" as="geometry" />
        </mxCell>
        <mxCell id="gdKUg1x8Pc7YjSa4p0e4-2" value="Load Dataset" style="shape=parallelogram;perimeter=parallelogramPerimeter;whiteSpace=wrap;html=1;fixedSize=1;fontSize=14;" parent="1" vertex="1">
          <mxGeometry x="549" y="127" width="120" height="50" as="geometry" />
        </mxCell>
        <mxCell id="gdKUg1x8Pc7YjSa4p0e4-48" style="edgeStyle=orthogonalEdgeStyle;rounded=0;orthogonalLoop=1;jettySize=auto;html=1;entryX=0.5;entryY=0;entryDx=0;entryDy=0;fontSize=14;strokeColor=#66B2FF;" parent="1" source="gdKUg1x8Pc7YjSa4p0e4-3" target="gdKUg1x8Pc7YjSa4p0e4-5" edge="1">
          <mxGeometry relative="1" as="geometry" />
        </mxCell>
        <mxCell id="gdKUg1x8Pc7YjSa4p0e4-3" value="Aggregate the dataset into monthly form" style="rounded=0;whiteSpace=wrap;html=1;fontSize=14;" parent="1" vertex="1">
          <mxGeometry x="534" y="207" width="150" height="50" as="geometry" />
        </mxCell>
        <mxCell id="gdKUg1x8Pc7YjSa4p0e4-47" style="edgeStyle=orthogonalEdgeStyle;rounded=0;orthogonalLoop=1;jettySize=auto;html=1;entryX=0.5;entryY=0;entryDx=0;entryDy=0;fontSize=14;strokeColor=#66B2FF;" parent="1" source="gdKUg1x8Pc7YjSa4p0e4-5" target="gdKUg1x8Pc7YjSa4p0e4-6" edge="1">
          <mxGeometry relative="1" as="geometry" />
        </mxCell>
        <mxCell id="gdKUg1x8Pc7YjSa4p0e4-5" value="Find Correlation Matrix" style="rounded=0;whiteSpace=wrap;html=1;fontSize=14;" parent="1" vertex="1">
          <mxGeometry x="549" y="287" width="120" height="50" as="geometry" />
        </mxCell>
        <mxCell id="gdKUg1x8Pc7YjSa4p0e4-46" style="edgeStyle=orthogonalEdgeStyle;rounded=0;orthogonalLoop=1;jettySize=auto;html=1;entryX=0.5;entryY=0;entryDx=0;entryDy=0;fontSize=14;strokeColor=#66B2FF;" parent="1" source="gdKUg1x8Pc7YjSa4p0e4-6" target="gdKUg1x8Pc7YjSa4p0e4-7" edge="1">
          <mxGeometry relative="1" as="geometry" />
        </mxCell>
        <mxCell id="gdKUg1x8Pc7YjSa4p0e4-60" value="True" style="edgeLabel;html=1;align=center;verticalAlign=middle;resizable=0;points=[];fontSize=14;" parent="gdKUg1x8Pc7YjSa4p0e4-46" vertex="1" connectable="0">
          <mxGeometry x="0.24" y="1" relative="1" as="geometry">
            <mxPoint x="-1" as="offset" />
          </mxGeometry>
        </mxCell>
        <mxCell id="gdKUg1x8Pc7YjSa4p0e4-52" style="edgeStyle=orthogonalEdgeStyle;rounded=0;orthogonalLoop=1;jettySize=auto;html=1;entryX=0;entryY=0.5;entryDx=0;entryDy=0;fontSize=14;strokeColor=#66B2FF;" parent="1" source="gdKUg1x8Pc7YjSa4p0e4-6" target="gdKUg1x8Pc7YjSa4p0e4-9" edge="1">
          <mxGeometry relative="1" as="geometry">
            <Array as="points">
              <mxPoint x="364" y="417" />
              <mxPoint x="364" y="712" />
            </Array>
          </mxGeometry>
        </mxCell>
        <mxCell id="gdKUg1x8Pc7YjSa4p0e4-59" value="False" style="edgeLabel;html=1;align=center;verticalAlign=middle;resizable=0;points=[];fontSize=14;" parent="gdKUg1x8Pc7YjSa4p0e4-52" vertex="1" connectable="0">
          <mxGeometry x="-0.8496" relative="1" as="geometry">
            <mxPoint as="offset" />
          </mxGeometry>
        </mxCell>
        <mxCell id="gdKUg1x8Pc7YjSa4p0e4-6" value="If matrix has more positive &lt;br&gt;and negative values" style="rhombus;whiteSpace=wrap;html=1;fontSize=14;align=center;" parent="1" vertex="1">
          <mxGeometry x="484" y="367" width="250" height="100" as="geometry" />
        </mxCell>
        <mxCell id="gdKUg1x8Pc7YjSa4p0e4-45" style="edgeStyle=orthogonalEdgeStyle;rounded=0;orthogonalLoop=1;jettySize=auto;html=1;entryX=0.5;entryY=0;entryDx=0;entryDy=0;fontSize=14;strokeColor=#66B2FF;" parent="1" source="gdKUg1x8Pc7YjSa4p0e4-7" target="gdKUg1x8Pc7YjSa4p0e4-8" edge="1">
          <mxGeometry relative="1" as="geometry" />
        </mxCell>
        <mxCell id="gdKUg1x8Pc7YjSa4p0e4-7" value="Perform Bartlett test and KMO test" style="rounded=0;whiteSpace=wrap;html=1;fontSize=14;" parent="1" vertex="1">
          <mxGeometry x="549" y="497" width="120" height="50" as="geometry" />
        </mxCell>
        <mxCell id="gdKUg1x8Pc7YjSa4p0e4-44" style="edgeStyle=orthogonalEdgeStyle;rounded=0;orthogonalLoop=1;jettySize=auto;html=1;entryX=0.5;entryY=0;entryDx=0;entryDy=0;fontSize=14;strokeColor=#66B2FF;" parent="1" source="gdKUg1x8Pc7YjSa4p0e4-8" target="gdKUg1x8Pc7YjSa4p0e4-9" edge="1">
          <mxGeometry relative="1" as="geometry" />
        </mxCell>
        <mxCell id="gdKUg1x8Pc7YjSa4p0e4-62" value="True" style="edgeLabel;html=1;align=center;verticalAlign=middle;resizable=0;points=[];fontSize=14;" parent="gdKUg1x8Pc7YjSa4p0e4-44" vertex="1" connectable="0">
          <mxGeometry x="0.32" y="1" relative="1" as="geometry">
            <mxPoint x="-1" as="offset" />
          </mxGeometry>
        </mxCell>
        <mxCell id="gdKUg1x8Pc7YjSa4p0e4-54" style="edgeStyle=orthogonalEdgeStyle;rounded=0;orthogonalLoop=1;jettySize=auto;html=1;entryX=1;entryY=0.5;entryDx=0;entryDy=0;fontSize=14;strokeColor=#66B2FF;" parent="1" source="gdKUg1x8Pc7YjSa4p0e4-8" target="gdKUg1x8Pc7YjSa4p0e4-3" edge="1">
          <mxGeometry relative="1" as="geometry">
            <Array as="points">
              <mxPoint x="864" y="617" />
              <mxPoint x="864" y="232" />
            </Array>
          </mxGeometry>
        </mxCell>
        <mxCell id="gdKUg1x8Pc7YjSa4p0e4-61" value="False" style="edgeLabel;html=1;align=center;verticalAlign=middle;resizable=0;points=[];fontSize=14;" parent="gdKUg1x8Pc7YjSa4p0e4-54" vertex="1" connectable="0">
          <mxGeometry x="-0.7605" y="-2" relative="1" as="geometry">
            <mxPoint y="-2" as="offset" />
          </mxGeometry>
        </mxCell>
        <mxCell id="gdKUg1x8Pc7YjSa4p0e4-8" value="If KMO &amp;gt; 0.5" style="rhombus;whiteSpace=wrap;html=1;fontSize=14;" parent="1" vertex="1">
          <mxGeometry x="549" y="577" width="120" height="80" as="geometry" />
        </mxCell>
        <mxCell id="5D3_yG2X3wD0r3FNZIlU-8" value="" style="edgeStyle=orthogonalEdgeStyle;rounded=0;orthogonalLoop=1;jettySize=auto;html=1;" edge="1" parent="1" source="gdKUg1x8Pc7YjSa4p0e4-9" target="5D3_yG2X3wD0r3FNZIlU-2">
          <mxGeometry relative="1" as="geometry" />
        </mxCell>
        <mxCell id="gdKUg1x8Pc7YjSa4p0e4-9" value="Scaling the data" style="rounded=0;whiteSpace=wrap;html=1;fontSize=14;" parent="1" vertex="1">
          <mxGeometry x="534" y="687" width="150" height="50" as="geometry" />
        </mxCell>
        <mxCell id="gdKUg1x8Pc7YjSa4p0e4-42" style="edgeStyle=orthogonalEdgeStyle;rounded=0;orthogonalLoop=1;jettySize=auto;html=1;entryX=0.5;entryY=0;entryDx=0;entryDy=0;fontSize=14;strokeColor=#66B2FF;" parent="1" source="gdKUg1x8Pc7YjSa4p0e4-10" target="gdKUg1x8Pc7YjSa4p0e4-11" edge="1">
          <mxGeometry relative="1" as="geometry" />
        </mxCell>
        <mxCell id="gdKUg1x8Pc7YjSa4p0e4-10" value="Perform ADF test" style="rounded=0;whiteSpace=wrap;html=1;fontSize=14;" parent="1" vertex="1">
          <mxGeometry x="549" y="1047" width="120" height="50" as="geometry" />
        </mxCell>
        <mxCell id="gdKUg1x8Pc7YjSa4p0e4-21" style="edgeStyle=orthogonalEdgeStyle;rounded=0;orthogonalLoop=1;jettySize=auto;html=1;entryX=1;entryY=0.5;entryDx=0;entryDy=0;fontSize=14;strokeColor=#66B2FF;" parent="1" source="gdKUg1x8Pc7YjSa4p0e4-11" target="gdKUg1x8Pc7YjSa4p0e4-16" edge="1">
          <mxGeometry relative="1" as="geometry" />
        </mxCell>
        <mxCell id="gdKUg1x8Pc7YjSa4p0e4-64" value="2nd Run False" style="edgeLabel;html=1;align=center;verticalAlign=middle;resizable=0;points=[];fontSize=14;" parent="gdKUg1x8Pc7YjSa4p0e4-21" vertex="1" connectable="0">
          <mxGeometry x="-0.1263" y="2" relative="1" as="geometry">
            <mxPoint y="-2" as="offset" />
          </mxGeometry>
        </mxCell>
        <mxCell id="gdKUg1x8Pc7YjSa4p0e4-40" style="edgeStyle=orthogonalEdgeStyle;rounded=0;orthogonalLoop=1;jettySize=auto;html=1;entryX=0;entryY=0.5;entryDx=0;entryDy=0;fontSize=14;strokeColor=#66B2FF;" parent="1" source="gdKUg1x8Pc7YjSa4p0e4-11" target="gdKUg1x8Pc7YjSa4p0e4-20" edge="1">
          <mxGeometry relative="1" as="geometry" />
        </mxCell>
        <mxCell id="gdKUg1x8Pc7YjSa4p0e4-63" value="1st Run False" style="edgeLabel;html=1;align=center;verticalAlign=middle;resizable=0;points=[];fontSize=14;" parent="gdKUg1x8Pc7YjSa4p0e4-40" vertex="1" connectable="0">
          <mxGeometry x="-0.0421" y="1" relative="1" as="geometry">
            <mxPoint as="offset" />
          </mxGeometry>
        </mxCell>
        <mxCell id="gdKUg1x8Pc7YjSa4p0e4-50" style="edgeStyle=orthogonalEdgeStyle;rounded=0;orthogonalLoop=1;jettySize=auto;html=1;entryX=0.5;entryY=0;entryDx=0;entryDy=0;fontSize=14;strokeColor=#66B2FF;" parent="1" source="gdKUg1x8Pc7YjSa4p0e4-11" target="gdKUg1x8Pc7YjSa4p0e4-12" edge="1">
          <mxGeometry relative="1" as="geometry" />
        </mxCell>
        <mxCell id="gdKUg1x8Pc7YjSa4p0e4-65" value="True" style="edgeLabel;html=1;align=center;verticalAlign=middle;resizable=0;points=[];fontSize=14;" parent="gdKUg1x8Pc7YjSa4p0e4-50" vertex="1" connectable="0">
          <mxGeometry x="-0.1455" y="1" relative="1" as="geometry">
            <mxPoint x="-1" as="offset" />
          </mxGeometry>
        </mxCell>
        <mxCell id="gdKUg1x8Pc7YjSa4p0e4-11" value="If P value &amp;lt; 0.05" style="rhombus;whiteSpace=wrap;html=1;fontSize=14;" parent="1" vertex="1">
          <mxGeometry x="534" y="1127" width="150" height="80" as="geometry" />
        </mxCell>
        <mxCell id="gdKUg1x8Pc7YjSa4p0e4-37" style="edgeStyle=orthogonalEdgeStyle;rounded=0;orthogonalLoop=1;jettySize=auto;html=1;entryX=0.5;entryY=0;entryDx=0;entryDy=0;fontSize=14;strokeColor=#66B2FF;" parent="1" source="gdKUg1x8Pc7YjSa4p0e4-12" target="gdKUg1x8Pc7YjSa4p0e4-13" edge="1">
          <mxGeometry relative="1" as="geometry" />
        </mxCell>
        <mxCell id="gdKUg1x8Pc7YjSa4p0e4-12" value="Factors are stationary" style="rounded=0;whiteSpace=wrap;html=1;fontSize=14;" parent="1" vertex="1">
          <mxGeometry x="549" y="1317" width="120" height="50" as="geometry" />
        </mxCell>
        <mxCell id="gdKUg1x8Pc7YjSa4p0e4-38" style="edgeStyle=orthogonalEdgeStyle;rounded=0;orthogonalLoop=1;jettySize=auto;html=1;entryX=0.5;entryY=0;entryDx=0;entryDy=0;fontSize=14;strokeColor=#66B2FF;" parent="1" source="gdKUg1x8Pc7YjSa4p0e4-13" target="gdKUg1x8Pc7YjSa4p0e4-14" edge="1">
          <mxGeometry relative="1" as="geometry" />
        </mxCell>
        <mxCell id="gdKUg1x8Pc7YjSa4p0e4-13" value="Perform Regression" style="rounded=0;whiteSpace=wrap;html=1;fontSize=14;" parent="1" vertex="1">
          <mxGeometry x="549" y="1397" width="120" height="50" as="geometry" />
        </mxCell>
        <mxCell id="gdKUg1x8Pc7YjSa4p0e4-39" style="edgeStyle=orthogonalEdgeStyle;rounded=0;orthogonalLoop=1;jettySize=auto;html=1;entryX=0.5;entryY=0;entryDx=0;entryDy=0;fontSize=14;strokeColor=#66B2FF;" parent="1" source="gdKUg1x8Pc7YjSa4p0e4-14" target="gdKUg1x8Pc7YjSa4p0e4-15" edge="1">
          <mxGeometry relative="1" as="geometry" />
        </mxCell>
        <mxCell id="gdKUg1x8Pc7YjSa4p0e4-14" value="Influential Macroeconomic Indices" style="shape=parallelogram;perimeter=parallelogramPerimeter;whiteSpace=wrap;html=1;fixedSize=1;fontSize=14;" parent="1" vertex="1">
          <mxGeometry x="509" y="1477" width="200" height="50" as="geometry" />
        </mxCell>
        <mxCell id="gdKUg1x8Pc7YjSa4p0e4-15" value="Stop" style="ellipse;whiteSpace=wrap;html=1;fontSize=14;" parent="1" vertex="1">
          <mxGeometry x="571.5" y="1557" width="75" height="50" as="geometry" />
        </mxCell>
        <mxCell id="gdKUg1x8Pc7YjSa4p0e4-41" style="edgeStyle=orthogonalEdgeStyle;rounded=0;orthogonalLoop=1;jettySize=auto;html=1;fontSize=14;strokeColor=#66B2FF;" parent="1" source="gdKUg1x8Pc7YjSa4p0e4-16" edge="1">
          <mxGeometry relative="1" as="geometry">
            <mxPoint x="284" y="1220" as="targetPoint" />
          </mxGeometry>
        </mxCell>
        <mxCell id="gdKUg1x8Pc7YjSa4p0e4-16" value="Find Second Difference" style="rounded=0;whiteSpace=wrap;html=1;fontSize=14;" parent="1" vertex="1">
          <mxGeometry x="224" y="1142" width="120" height="50" as="geometry" />
        </mxCell>
        <mxCell id="gdKUg1x8Pc7YjSa4p0e4-23" value="" style="edgeStyle=orthogonalEdgeStyle;rounded=0;orthogonalLoop=1;jettySize=auto;html=1;fontSize=14;strokeColor=#66B2FF;" parent="1" source="gdKUg1x8Pc7YjSa4p0e4-17" target="gdKUg1x8Pc7YjSa4p0e4-18" edge="1">
          <mxGeometry relative="1" as="geometry" />
        </mxCell>
        <mxCell id="gdKUg1x8Pc7YjSa4p0e4-17" value="Perform GARCH Model" style="rounded=0;whiteSpace=wrap;html=1;fontSize=14;" parent="1" vertex="1">
          <mxGeometry x="224" y="1222" width="120" height="50" as="geometry" />
        </mxCell>
        <mxCell id="gdKUg1x8Pc7YjSa4p0e4-24" value="" style="edgeStyle=orthogonalEdgeStyle;rounded=0;orthogonalLoop=1;jettySize=auto;html=1;fontSize=14;strokeColor=#66B2FF;" parent="1" source="gdKUg1x8Pc7YjSa4p0e4-18" target="gdKUg1x8Pc7YjSa4p0e4-19" edge="1">
          <mxGeometry relative="1" as="geometry" />
        </mxCell>
        <mxCell id="gdKUg1x8Pc7YjSa4p0e4-67" value="False" style="edgeLabel;html=1;align=center;verticalAlign=middle;resizable=0;points=[];fontSize=14;" parent="gdKUg1x8Pc7YjSa4p0e4-24" vertex="1" connectable="0">
          <mxGeometry x="0.2308" y="2" relative="1" as="geometry">
            <mxPoint as="offset" />
          </mxGeometry>
        </mxCell>
        <mxCell id="gdKUg1x8Pc7YjSa4p0e4-25" style="edgeStyle=orthogonalEdgeStyle;rounded=0;orthogonalLoop=1;jettySize=auto;html=1;fontSize=14;strokeColor=#66B2FF;" parent="1" source="gdKUg1x8Pc7YjSa4p0e4-18" target="gdKUg1x8Pc7YjSa4p0e4-12" edge="1">
          <mxGeometry relative="1" as="geometry" />
        </mxCell>
        <mxCell id="gdKUg1x8Pc7YjSa4p0e4-66" value="True" style="edgeLabel;html=1;align=center;verticalAlign=middle;resizable=0;points=[];fontSize=14;" parent="gdKUg1x8Pc7YjSa4p0e4-25" vertex="1" connectable="0">
          <mxGeometry x="-0.1822" y="1" relative="1" as="geometry">
            <mxPoint as="offset" />
          </mxGeometry>
        </mxCell>
        <mxCell id="gdKUg1x8Pc7YjSa4p0e4-18" value="&lt;span style=&quot;text-align: start;&quot; id=&quot;docs-internal-guid-f7596475-7fff-9a4c-d4e9-b0a9f492e0af&quot;&gt;&lt;p style=&quot;line-height: 1.2; text-align: center; margin-top: 0pt; margin-bottom: 0pt;&quot; dir=&quot;ltr&quot;&gt;&lt;span style=&quot;font-family: &amp;quot;Times New Roman&amp;quot;; font-variant-ligatures: normal; font-variant-east-asian: normal; font-variant-position: normal; vertical-align: baseline;&quot;&gt;&lt;font style=&quot;font-size: 14px;&quot;&gt;⍺ + β &amp;lt; 1&lt;/font&gt;&lt;/span&gt;&lt;/p&gt;&lt;/span&gt;" style="rhombus;whiteSpace=wrap;html=1;fontSize=14;" parent="1" vertex="1">
          <mxGeometry x="244" y="1302" width="80" height="80" as="geometry" />
        </mxCell>
        <mxCell id="gdKUg1x8Pc7YjSa4p0e4-55" style="edgeStyle=orthogonalEdgeStyle;rounded=0;orthogonalLoop=1;jettySize=auto;html=1;entryX=0;entryY=0.5;entryDx=0;entryDy=0;fontSize=14;strokeColor=#66B2FF;" parent="1" source="gdKUg1x8Pc7YjSa4p0e4-19" target="gdKUg1x8Pc7YjSa4p0e4-17" edge="1">
          <mxGeometry relative="1" as="geometry">
            <Array as="points">
              <mxPoint x="175" y="1435" />
              <mxPoint x="175" y="1247" />
            </Array>
          </mxGeometry>
        </mxCell>
        <mxCell id="gdKUg1x8Pc7YjSa4p0e4-19" value="Find another difference" style="rounded=0;whiteSpace=wrap;html=1;fontSize=14;" parent="1" vertex="1">
          <mxGeometry x="224" y="1410" width="120" height="50" as="geometry" />
        </mxCell>
        <mxCell id="gdKUg1x8Pc7YjSa4p0e4-51" style="edgeStyle=orthogonalEdgeStyle;rounded=0;orthogonalLoop=1;jettySize=auto;html=1;entryX=1;entryY=0.5;entryDx=0;entryDy=0;fontSize=14;strokeColor=#66B2FF;" parent="1" source="gdKUg1x8Pc7YjSa4p0e4-20" target="gdKUg1x8Pc7YjSa4p0e4-10" edge="1">
          <mxGeometry relative="1" as="geometry">
            <Array as="points">
              <mxPoint x="934" y="1072" />
            </Array>
          </mxGeometry>
        </mxCell>
        <mxCell id="gdKUg1x8Pc7YjSa4p0e4-20" value="Find First Difference" style="rounded=0;whiteSpace=wrap;html=1;fontSize=14;" parent="1" vertex="1">
          <mxGeometry x="874" y="1142" width="120" height="50" as="geometry" />
        </mxCell>
        <mxCell id="5D3_yG2X3wD0r3FNZIlU-7" value="" style="edgeStyle=orthogonalEdgeStyle;rounded=0;orthogonalLoop=1;jettySize=auto;html=1;" edge="1" parent="1" source="5D3_yG2X3wD0r3FNZIlU-1" target="5D3_yG2X3wD0r3FNZIlU-4">
          <mxGeometry relative="1" as="geometry" />
        </mxCell>
        <mxCell id="5D3_yG2X3wD0r3FNZIlU-1" value="PCA" style="rounded=0;whiteSpace=wrap;html=1;fontSize=14;" vertex="1" parent="1">
          <mxGeometry x="534" y="767" width="150" height="50" as="geometry" />
        </mxCell>
        <mxCell id="5D3_yG2X3wD0r3FNZIlU-5" value="" style="edgeStyle=orthogonalEdgeStyle;rounded=0;orthogonalLoop=1;jettySize=auto;html=1;" edge="1" parent="1" source="5D3_yG2X3wD0r3FNZIlU-2" target="5D3_yG2X3wD0r3FNZIlU-4">
          <mxGeometry relative="1" as="geometry" />
        </mxCell>
        <mxCell id="5D3_yG2X3wD0r3FNZIlU-2" value="PCA with VARIMAX" style="rounded=0;whiteSpace=wrap;html=1;fontSize=14;" vertex="1" parent="1">
          <mxGeometry x="534" y="847" width="150" height="50" as="geometry" />
        </mxCell>
        <mxCell id="5D3_yG2X3wD0r3FNZIlU-6" value="True" style="edgeStyle=orthogonalEdgeStyle;rounded=0;orthogonalLoop=1;jettySize=auto;html=1;" edge="1" parent="1" source="5D3_yG2X3wD0r3FNZIlU-4" target="gdKUg1x8Pc7YjSa4p0e4-10">
          <mxGeometry relative="1" as="geometry" />
        </mxCell>
        <mxCell id="5D3_yG2X3wD0r3FNZIlU-9" style="edgeStyle=orthogonalEdgeStyle;rounded=0;orthogonalLoop=1;jettySize=auto;html=1;entryX=1;entryY=0.5;entryDx=0;entryDy=0;" edge="1" parent="1" source="5D3_yG2X3wD0r3FNZIlU-4" target="5D3_yG2X3wD0r3FNZIlU-1">
          <mxGeometry relative="1" as="geometry">
            <Array as="points">
              <mxPoint x="900" y="962" />
              <mxPoint x="900" y="792" />
            </Array>
          </mxGeometry>
        </mxCell>
        <mxCell id="5D3_yG2X3wD0r3FNZIlU-10" value="False" style="edgeLabel;html=1;align=center;verticalAlign=middle;resizable=0;points=[];" vertex="1" connectable="0" parent="5D3_yG2X3wD0r3FNZIlU-9">
          <mxGeometry x="-0.7372" y="2" relative="1" as="geometry">
            <mxPoint x="1" as="offset" />
          </mxGeometry>
        </mxCell>
        <mxCell id="5D3_yG2X3wD0r3FNZIlU-4" value="If row.isnull.sum(axis=1) = = (factors -1)" style="rhombus;whiteSpace=wrap;html=1;" vertex="1" parent="1">
          <mxGeometry x="468.5" y="917" width="281" height="90" as="geometry" />
        </mxCell>
      </root>
    </mxGraphModel>
  </diagram>
</mxfile>
